<?xml version="1.0" encoding="utf-8"?>
<!-- Generator: Adobe Illustrator 16.0.0, SVG Export Plug-In . SVG Version: 6.00 Build 0)  -->
<!DOCTYPE svg PUBLIC "-//W3C//DTD SVG 1.1//EN" "http://www.w3.org/Graphics/SVG/1.1/DTD/svg11.dtd">
<svg version="1.1" id="Layer_1" xmlns="http://www.w3.org/2000/svg" xmlns:xlink="http://www.w3.org/1999/xlink" x="0px" y="0px"
	 width="319.512px" height="398.781px" viewBox="0 0 319.512 398.781" enable-background="new 0 0 319.512 398.781"
	 xml:space="preserve">
<g>
	<g>
		<path fill="#FFCD9A" d="M211.683,69.082c0,0,38.241,56.919,39.602,72.17c0,0,24.222-10.565,34.841-7.235
			c10.619,3.33,8.37,22.501,8.37,22.501l-36.1,19.147c0,0,6.152,51.165-7.111,63.608s-31.943,15.789-31.943,15.789
			s-29.769,25.602-29.388,39.316l-9.118-1.904c0,0,0.027-24.851-28.718-32.051c-28.745-7.2-24.904-19.291-24.904-19.291
			s-42.422-9.843-43.126-39.795c-0.705-29.955,19.997-49.485,43.126-33.675c23.129,15.81,36.149-19.861,11.969-33.646
			C115.003,120.232,158.631,43.972,211.683,69.082z"/>
	</g>
</g>
<g>
	<g>
		<path fill="#231F20" d="M203.422,257.792c-11.807,0-25.374-1.446-40.771-4.327c-2.429-0.452-4.029-2.791-3.577-5.219
			c0.456-2.426,2.795-4.028,5.218-3.572c40.801,7.633,68.148,4.697,81.285-8.707c8.875-9.06,11.639-25.088,8.698-50.439
			c-0.283-2.453,1.475-4.672,3.927-4.957c2.459-0.275,4.672,1.476,4.957,3.932c3.321,28.626-0.134,46.429-11.192,57.722
			C241.782,252.62,225.757,257.787,203.422,257.792z"/>
	</g>
</g>
<g>
	<path fill="#FF0000" d="M212.833,279.264c0,0,13.151,7.039,6.509,34.41s-15.437,24.354-25.28,28.384
		c-9.842,4.028-48.273-7.44-48.273-7.44l-18.574,37.593l-43.178-16.937c0,0,18.906-16.064,16.118-32.155
		c0,0-16.287-10.978-16.084-34.001c0.203-23.021,13.699-31.42,26.036-28.542c0,0,1.638-7.668,24.464-5.513
		c22.827,2.155,46.725,4.229,44.735,29.095C179.305,284.158,209.958,295.67,212.833,279.264z"/>
</g>
<g>
	<g>
		<g>
			<path fill="#231F20" d="M246.811,134.018c-1.805,0-3.505-1.099-4.182-2.892c-9.575-25.3-23.887-41.629-24.03-41.792
				c-1.639-1.846-1.466-4.67,0.383-6.312c1.849-1.635,4.676-1.462,6.312,0.385c0.63,0.71,15.547,17.736,25.701,44.557
				c0.873,2.311-0.292,4.891-2.601,5.763C247.87,133.923,247.337,134.018,246.811,134.018z"/>
		</g>
	</g>
</g>
<g>
	<g>
		<g>
			<path fill="#231F20" d="M254.963,176.56c-1.878,0-3.631-1.192-4.247-3.078c-0.772-2.35,0.508-4.872,2.854-5.646l33.305-10.922
				c3.105-0.872,4.923-4.105,4.048-7.207l-2.79-9.94c-0.866-3.081-4.07-4.902-7.154-4.06l-31.271,9.813
				c-2.358,0.734-4.866-0.569-5.605-2.929c-0.739-2.356,0.572-4.868,2.928-5.605l31.473-9.874
				c7.849-2.205,16.033,2.391,18.239,10.236l2.791,9.936c2.198,7.82-2.347,15.962-10.137,18.212l-33.039,10.838
				C255.894,176.487,255.427,176.56,254.963,176.56z"/>
		</g>
	</g>
</g>
<g>
	<g>
		<g>
			<path fill="#231F20" d="M219.538,68.137c0,0-2.065,14.797-16.854,18.236c-14.791,3.435-21.67-5.851-21.67-5.851
				s11.007,36.459-34.739,44.374c0,0,14.446,8.253,10.663,35.083c-3.786,26.831-18.919,25.115-29.583,14.794
				c-10.662-10.322-28.889-15.625-38.528,11.615c-9.635,27.253,26.491,50.988,42.658,44.796c0,0,3.095,10.875-1.032,22.116
				c0,0-12.038,1.271-22.358,7.124l-11.353-2.411l-3.095-4.713c0,0-20.957,4.925-33.29-6.449
				c-6.498-5.997-14.299-19.913-7.995-34.582c0,0-31.351-20.988-31.302-55.751c0.029-21.908,12.841-55.357,37.497-58.451
				c0,0-2.73-26.177,15.478-39.904c20.989-15.822,39.907-4.13,39.907-4.13s-4.128-20.98,18.574-28.892
				c22.701-7.914,32.676,10.318,32.676,10.318s7.567-16.022,28.202-12.999c20.64,3.024,20.987,22.628,20.987,22.628
				s12.283-4.777,16.853,6.881C234.378,59.999,229.858,68.713,219.538,68.137z"/>
		</g>
	</g>
</g>
<g>
	<g>
		<g>
			<path fill="#231F20" d="M130.097,209.167c-0.738,0-1.491-0.186-2.181-0.572c-0.513-0.289-4.123-2.383-7.406-6.039
				c-1.042,1.718-3.159,2.562-5.161,1.941c-4.748-1.5-10.03-5.142-10.615-10.892c-0.339-3.366,1.168-6.41,3.942-7.95
				c5.191-2.888,11.888,0.525,16.666,8.488c2.421,4.032,6.926,6.641,6.972,6.664c2.136,1.223,2.891,3.949,1.677,6.092
				C133.167,208.353,131.653,209.167,130.097,209.167z"/>
		</g>
	</g>
</g>
<g>
	<g>
		<g>
			<g>
				<path fill="#231F20" d="M194.428,284.158c-0.38,0-0.765-0.046-1.151-0.151c-2.385-0.633-3.807-3.082-3.173-5.467
					c4.471-16.869,19.867-19.346,20.521-19.442c2.443-0.371,4.719,1.323,5.081,3.761c0.363,2.435-1.31,4.703-3.735,5.08
					c-0.474,0.077-10.297,1.859-13.22,12.895C198.218,282.835,196.407,284.158,194.428,284.158z"/>
			</g>
		</g>
	</g>
</g>
<g>
	<g>
		<g>
			<path fill="#231F20" d="M184.219,346.086c-18.777,0.004-29.076-4.697-29.517-4.904c-2.242-1.044-3.208-3.705-2.164-5.938
				c1.046-2.247,3.706-3.211,5.945-2.165c0.075,0.036,9.811,4.37,27.61,4.05c1.893-0.033,3.649-0.026,5.346-0.021
				c7.905,0.029,12.172-0.096,15.492-2.906c4.032-3.398,7.303-11.505,10.297-25.525c2.458-11.514,1.887-19.954-1.606-23.803
				c-0.278,1.388-0.944,2.951-2.281,4.552c-6.521,7.827-22.29,7.378-48.206-1.378c-2.34-0.787-3.596-3.326-2.805-5.664
				c0.789-2.342,3.324-3.602,5.666-2.809c31.132,10.518,37.513,5.284,38.477,4.127c0.224-0.271,0.32-0.447,0.358-0.539
				c-0.161-0.346-0.828-0.988-1.384-1.322c-1.649-0.916-2.52-2.771-2.205-4.633c0.318-1.865,1.794-3.317,3.654-3.645
				c3.255-0.576,10.076-0.184,15.002,4.926c5.932,6.152,7.304,16.939,4.072,32.056c-3.522,16.495-7.492,25.616-13.272,30.501
				c-5.987,5.049-13.076,5.036-21.287,5.003c-1.647,0-3.357-0.007-5.16,0.026C185.563,346.086,184.884,346.086,184.219,346.086z"/>
		</g>
	</g>
</g>
<g>
	<g>
		<g>
			<path fill="#231F20" d="M123.565,383.569c-0.908,0-1.826-0.276-2.618-0.852c-2.001-1.451-2.446-4.246-0.997-6.243
				c26.834-37.021,25.675-58.428,24.831-74.065c-0.401-7.458-0.752-13.908,1.818-20.271c2.636-6.531,6.504-10.257,11.494-11.062
				c8.655-1.403,16.203,7.141,17.038,8.118c1.602,1.879,1.374,4.707-0.508,6.305c-1.876,1.6-4.694,1.375-6.296-0.498
				c-1.612-1.875-5.89-5.591-8.812-5.096c-2.21,0.362-3.847,3.652-4.626,5.582c-1.823,4.52-1.539,9.776-1.179,16.438
				c0.919,16.974,2.174,40.214-26.519,79.795C126.315,382.923,124.953,383.569,123.565,383.569z"/>
		</g>
	</g>
</g>
<g>
	<g>
		<g>
			<path fill="#231F20" d="M73.691,363.964c-1.436,0-2.845-0.694-3.709-1.97c-1.384-2.048-0.843-4.83,1.203-6.208
				c26.255-17.741,26.293-37.358,26.333-60.071c0.017-8.232,0.029-16.742,1.337-25.467c1.239-8.284,4.815-14.25,10.619-17.723
				c13.053-7.805,33.204-0.582,47.922,4.692c3.575,1.276,6.663,2.391,8.97,3.017c18.148,4.953,18.824,26.749,18.845,27.676
				c0.051,2.469-1.907,4.512-4.376,4.564c-0.032,0.004-0.062,0.004-0.097,0.004c-2.419,0-4.41-1.935-4.468-4.367
				c-0.018-0.673-0.586-16.064-12.256-19.244c-2.644-0.727-5.884-1.887-9.637-3.229c-12.299-4.41-30.887-11.074-40.312-5.438
				c-3.447,2.066-5.527,5.782-6.367,11.374c-1.205,8.067-1.22,16.246-1.236,24.159c-0.042,23.14-0.083,47.07-30.271,67.458
				C75.424,363.713,74.552,363.964,73.691,363.964z"/>
		</g>
	</g>
</g>
<g>
	<g>
		<g>
			<path fill="#231F20" d="M105.688,379.44c-1.222,0-2.439-0.498-3.32-1.474c-1.655-1.834-1.514-4.66,0.32-6.312
				c9.678-8.746,13.51-20.001,13.545-20.116c0.781-2.344,3.315-3.61,5.658-2.824c2.341,0.779,3.608,3.314,2.827,5.652
				c-0.183,0.549-4.631,13.62-16.035,23.921C107.828,379.059,106.757,379.44,105.688,379.44z"/>
		</g>
	</g>
</g>
<g>
	<g>
		<g>
			<path fill="#231F20" d="M88.566,372.21c-1.3,0-2.593-0.57-3.477-1.657c-1.559-1.919-1.267-4.734,0.651-6.29
				c10.054-8.157,14.554-19.268,14.6-19.381c0.908-2.292,3.505-3.418,5.799-2.508c2.292,0.909,3.421,3.496,2.519,5.788
				c-0.213,0.545-5.344,13.36-17.275,23.046C90.553,371.878,89.556,372.21,88.566,372.21z"/>
		</g>
	</g>
</g>
<g>
	<g>
		<g>
			<path fill="#231F20" d="M100.843,323.174c-0.227,0-0.458-0.02-0.688-0.056c-0.252-0.037-25.289-4.24-21.259-32.035
				c2.387-16.487,3.967-27.382,11.247-32.788c3.998-2.97,9.144-3.861,16.203-2.807c2.443,0.367,4.128,2.643,3.761,5.087
				c-0.366,2.438-2.636,4.127-5.083,3.757c-5.976-0.895-8.309,0.223-9.543,1.14c-4.295,3.191-5.809,13.649-7.73,26.892
				c-1.184,8.146,0.771,14.281,5.805,18.23c3.782,2.974,7.925,3.68,7.967,3.688c2.439,0.374,4.113,2.665,3.736,5.101
				C104.915,321.592,103.01,323.174,100.843,323.174z"/>
		</g>
	</g>
</g>
<g>
	<g>
		<g>
			<path fill="#231F20" d="M219.098,146.862c1.059,4.141-1.438,8.356-5.578,9.412l0,0c-4.142,1.066-8.361-1.437-9.418-5.575
				l-5.794-22.664c-1.057-4.138,1.444-8.356,5.584-9.417l0,0c4.14-1.057,8.355,1.442,9.415,5.58L219.098,146.862z"/>
		</g>
	</g>
</g>
<g>
	<g>
		<g>
			<path fill="#231F20" d="M186.856,122.488c-0.476,0-0.961-0.078-1.431-0.254c-2.129-0.793-3.221-3.145-2.439-5.277
				c0.241-0.664,6.186-16.372,24.965-19.861c2.241-0.406,4.394,1.066,4.812,3.31c0.414,2.24-1.066,4.397-3.308,4.813
				c-14.035,2.6-18.539,14.106-18.724,14.597C190.104,121.466,188.527,122.488,186.856,122.488z"/>
		</g>
	</g>
</g>
<g>
	<g>
		<g>
			<path fill="#231F20" d="M222.355,209.848c-6.414,0-15.384-1.83-23.723-9.937c-1.635-1.584-1.673-4.201-0.083-5.834
				c1.587-1.632,4.2-1.674,5.836-0.086c11.188,10.876,23.636,6.965,24.162,6.792c2.155-0.708,4.493,0.458,5.21,2.612
				c0.721,2.147-0.418,4.472-2.567,5.204C230.877,208.711,227.408,209.848,222.355,209.848z"/>
		</g>
	</g>
</g>
<g>
	<g>
		<g>
			<path fill="#231F20" d="M201.512,212.269c-1.407,0-2.778-0.72-3.549-2.024c-3.672-6.164-4.759-11.853-3.23-16.901
				c1.906-6.299,7.127-8.955,7.718-9.234c2.054-0.982,4.52-0.117,5.503,1.944c0.976,2.036,0.126,4.48-1.898,5.479
				c-0.178,0.095-2.625,1.417-3.449,4.295c-0.771,2.686,0.076,6.213,2.448,10.2c1.166,1.958,0.523,4.492-1.437,5.654
				C202.958,212.079,202.231,212.269,201.512,212.269z"/>
		</g>
	</g>
</g>
</svg>
