<?xml version="1.0" encoding="utf-8"?>
<!-- Generator: Adobe Illustrator 16.0.0, SVG Export Plug-In . SVG Version: 6.00 Build 0)  -->
<!DOCTYPE svg PUBLIC "-//W3C//DTD SVG 1.1//EN" "http://www.w3.org/Graphics/SVG/1.1/DTD/svg11.dtd">
<svg version="1.1" id="Layer_1" xmlns="http://www.w3.org/2000/svg" xmlns:xlink="http://www.w3.org/1999/xlink" x="0px" y="0px"
	 width="896.341px" height="407.317px" viewBox="0 0 896.341 407.317" enable-background="new 0 0 896.341 407.317"
	 xml:space="preserve">
<g>
	<path d="M428.421,173.032l-11.18,11.18c-5.2-4.94-11.268-7.41-18.2-7.41c-4.075,0-7.367,0.89-9.88,2.665
		c-2.515,1.777-3.77,4.225-3.77,7.345c0,1.735,0.455,3.208,1.365,4.42c0.91,1.215,2.405,2.34,4.485,3.38s5.155,2.297,9.23,3.77
		c7.625,2.515,13.39,5.765,17.29,9.75c3.9,3.987,5.85,9.274,5.85,15.86c0,5.114-1.257,10.098-3.77,14.949
		c-2.515,4.855-6.652,8.863-12.415,12.025c-5.765,3.162-13.195,4.745-22.295,4.745c-7.28,0-13.63-1.192-19.045-3.575
		c-5.417-2.383-9.989-5.567-13.715-9.555l12.09-11.96c5.72,5.895,12.61,8.84,20.67,8.84c4.94,0,8.905-1.083,11.895-3.25
		c2.99-2.165,4.485-5.069,4.485-8.71c0-3.033-1.04-5.48-3.12-7.346c-2.08-1.861-5.765-3.747-11.05-5.654
		c-8.408-2.686-14.495-6.065-18.265-10.141c-3.77-4.072-5.655-9.142-5.655-15.209c0-4.68,1.277-9.143,3.835-13.39
		c2.555-4.245,6.5-7.735,11.83-10.465c5.33-2.73,11.938-4.095,19.825-4.095C411.131,161.203,420.966,165.147,428.421,173.032z"/>
	<path d="M491.017,186.552c2.814,2.948,4.225,7.065,4.225,12.35c0,1.907-0.088,3.379-0.26,4.42l-7.02,50.18h-20.281l6.76-45.63
		c0.261-1.3,0.391-2.425,0.391-3.38c0-2.08-0.435-3.51-1.301-4.29c-0.867-0.78-2.079-1.17-3.639-1.17
		c-2.256,0-4.681,1.475-7.281,4.42c-2.6,2.947-5.2,6.978-7.8,12.09l-5.33,37.96h-20.15l13.52-96.46l20.41-2.08l-5.98,41.34
		c2.513-4.245,5.785-7.647,9.815-10.205c4.03-2.556,8.081-3.835,12.155-3.835C484.276,182.177,488.198,183.607,491.017,186.552z"/>
	<path d="M554.519,220.417c-8.234,4.117-18.85,6.782-31.85,7.995c0.434,8.146,4.506,12.22,12.221,12.22
		c2.859,0,5.697-0.521,8.516-1.56c2.814-1.041,5.826-2.643,9.035-4.811l7.279,12.221c-8.494,6.154-17.637,9.229-27.43,9.229
		c-9.795,0-17.248-2.62-22.361-7.864c-5.113-5.243-7.67-12.371-7.67-21.386c0-6.933,1.32-13.78,3.965-20.54
		c2.643-6.76,6.912-12.393,12.807-16.9c5.893-4.505,13.344-6.76,22.359-6.76c8.061,0,14.32,1.777,18.785,5.33
		c4.463,3.555,6.695,8.06,6.695,13.52C566.87,209.868,562.753,216.302,554.519,220.417z M540.935,211.123
		c3.682-2.601,5.525-5.546,5.525-8.841c0-1.819-0.543-3.334-1.625-4.549c-1.086-1.212-2.883-1.82-5.395-1.82
		c-4.422,0-7.932,1.907-10.531,5.72c-2.6,3.815-4.377,8.58-5.33,14.3C531.464,215.327,537.249,213.723,540.935,211.123z"/>
	<path d="M623.419,183.562l-5.85,19.76c-2.428-0.605-4.336-0.91-5.721-0.91c-3.988,0-7.303,1.646-9.945,4.939
		c-2.645,3.295-5.004,8.018-7.084,14.17l-4.551,31.98h-20.15l9.621-69.03h17.549l-0.26,12.87c2.252-4.68,5.156-8.32,8.711-10.92
		c3.553-2.6,7.148-3.9,10.789-3.9C618.78,182.522,621.079,182.87,623.419,183.562z"/>
	<path d="M641.618,236.212c0,1.215,0.236,2.06,0.715,2.535c0.475,0.478,1.189,0.715,2.145,0.715c0.693,0,1.82-0.26,3.381-0.78
		l2.34,14.43c-3.9,1.733-8.234,2.601-13,2.601c-5.115,0-9.059-1.345-11.83-4.03c-2.775-2.686-4.16-6.585-4.16-11.699
		c0-0.953,0.086-2.471,0.26-4.551l11.051-78.39l20.408-2.21l-11.18,79.82C641.661,235,641.618,235.52,641.618,236.212z"/>
	<path d="M715.782,189.998c5.07,5.245,7.605,12.372,7.605,21.385c0,7.021-1.258,13.91-3.771,20.67
		c-2.514,6.761-6.652,12.396-12.414,16.9c-5.766,4.507-13.195,6.76-22.295,6.76s-16.186-2.601-21.256-7.8
		c-5.07-5.2-7.605-12.393-7.605-21.58c0-7.105,1.256-14.018,3.771-20.734c2.512-6.716,6.65-12.286,12.414-16.706
		s13.195-6.63,22.295-6.63C703.626,182.177,710.712,184.755,715.782,189.998z M680.421,206.962
		c-2.469,6.415-3.705,13.305-3.705,20.67c0,4.507,0.801,7.8,2.406,9.88c1.602,2.08,4.008,3.12,7.215,3.12
		c6.064-0.085,10.312-3.38,12.74-9.88c2.426-6.5,3.639-13.433,3.639-20.8c0-4.333-0.801-7.519-2.404-9.555
		c-1.604-2.035-4.01-3.055-7.215-3.055C687.116,197.342,682.892,200.55,680.421,206.962z"/>
	<path d="M789.815,191.103l-9.881,11.7c-1.906-1.732-3.814-2.967-5.719-3.705c-1.908-0.735-4.031-1.105-6.371-1.105
		c-6.326,0-10.834,2.925-13.52,8.775c-2.688,5.85-4.029,12.502-4.029,19.955c0,4.594,0.93,7.864,2.795,9.814
		c1.861,1.949,4.527,2.925,7.994,2.925c2.34,0,4.527-0.39,6.564-1.17c2.035-0.78,4.441-1.993,7.215-3.64l7.41,13.129
		c-7.193,5.288-15.08,7.931-23.66,7.931c-9.273,0-16.51-2.665-21.709-7.995s-7.801-12.588-7.801-21.775
		c0-6.585,1.365-13.237,4.096-19.955c2.73-6.715,6.998-12.35,12.805-16.899c5.805-4.55,13.043-6.825,21.711-6.825
		C776.728,182.262,784.095,185.21,789.815,191.103z"/>
	<path d="M839.993,182.262c5.633,0,10.119,1.518,13.455,4.55c3.336,3.035,5.006,6.935,5.006,11.7c0,11.268-6.24,19.37-18.721,24.311
		l12.871,30.68h-22.23l-12.48-33.279c7.281-2.341,12.436-4.961,15.471-7.865c3.033-2.903,4.549-6.261,4.549-10.076
		c0-1.905-0.52-3.334-1.559-4.289c-1.041-0.953-2.516-1.43-4.42-1.43c-2.775,0-5.656,1.17-8.646,3.51
		c-2.988,2.34-5.828,5.895-8.514,10.661l-5.98,42.77h-20.279l13.52-96.46l20.41-2.21l-5.33,38.61
		C823.7,185.99,831.327,182.262,839.993,182.262z"/>
</g>
<g>
	<path fill="#58595B" d="M358.13,291.531l-2.801,14.003h-0.86l-7.062-12.322l-2.46,12.322h-1.02l2.8-14.003h0.84l7.082,12.322
		l2.46-12.322H358.13z"/>
	<path fill="#58595B" d="M372.129,295.091l-2.081,10.442h-0.96l0.4-2.04c-1,1.32-2.541,2.12-4.401,2.12
		c-2.701,0-4.501-1.66-4.501-4.341c0-3.601,2.48-6.262,5.901-6.262c2.181,0,3.621,0.98,4.121,2.681l0.52-2.601H372.129z
		 M370.188,299.413c0-2.221-1.36-3.501-3.701-3.501c-2.82,0-4.901,2.24-4.901,5.301c0,2.221,1.36,3.501,3.701,3.501
		C368.108,304.713,370.188,302.493,370.188,299.413z"/>
	<path fill="#58595B" d="M376.947,302.513c-0.06,0.28-0.08,0.52-0.08,0.74c0,0.98,0.52,1.5,1.6,1.5c0.62,0,1.22-0.2,1.7-0.58
		l0.3,0.74c-0.62,0.5-1.46,0.7-2.24,0.7c-1.5,0-2.381-0.82-2.381-2.221c0-0.26,0.02-0.52,0.08-0.8l1.34-6.642h-1.94l0.16-0.86h1.94
		l0.46-2.28h1l-0.46,2.28h3.321l-0.16,0.86h-3.321L376.947,302.513z"/>
	<path fill="#58595B" d="M395.229,295.091l-2.081,10.442h-0.98l0.4-1.98c-1.021,1.44-2.521,2.061-4.281,2.061
		c-2.361,0-3.661-1.28-3.661-3.341c0-0.36,0.04-0.74,0.12-1.141l1.2-6.041h1l-1.2,6.041c-0.08,0.36-0.1,0.7-0.1,1.001
		c0,1.62,0.96,2.58,2.9,2.58c2.361,0,4.021-1.34,4.541-3.94l1.14-5.682H395.229z"/>
	<path fill="#58595B" d="M405.287,295.011l-0.18,0.98c-0.12,0-0.2-0.021-0.32-0.021c-2.36,0-3.921,1.421-4.481,4.201l-1.08,5.361h-1
		l2.081-10.442h0.98l-0.44,2.2C401.767,295.792,403.187,295.011,405.287,295.011z"/>
	<path fill="#58595B" d="M418.089,295.091l-2.081,10.442h-0.96l0.4-2.04c-1,1.32-2.541,2.12-4.401,2.12
		c-2.701,0-4.501-1.66-4.501-4.341c0-3.601,2.48-6.262,5.901-6.262c2.181,0,3.621,0.98,4.121,2.681l0.52-2.601H418.089z
		 M416.148,299.413c0-2.221-1.36-3.501-3.701-3.501c-2.82,0-4.901,2.24-4.901,5.301c0,2.221,1.36,3.501,3.701,3.501
		C414.068,304.713,416.148,302.493,416.148,299.413z"/>
	<path fill="#58595B" d="M424.046,290.691h1l-2.96,14.843h-1L424.046,290.691z"/>
	<path fill="#58595B" d="M427.486,299.712h5.141l-0.18,0.9h-5.141L427.486,299.712z"/>
	<path fill="#58595B" d="M438.646,290.691h1l-2.96,14.843h-1L438.646,290.691z"/>
	<path fill="#58595B" d="M453.168,295.091l-2.081,10.442h-0.96l0.4-2.04c-1,1.32-2.541,2.12-4.401,2.12
		c-2.701,0-4.501-1.66-4.501-4.341c0-3.601,2.48-6.262,5.901-6.262c2.181,0,3.621,0.98,4.121,2.681l0.52-2.601H453.168z
		 M451.228,299.413c0-2.221-1.36-3.501-3.701-3.501c-2.82,0-4.901,2.24-4.901,5.301c0,2.221,1.36,3.501,3.701,3.501
		C449.147,304.713,451.228,302.493,451.228,299.413z"/>
	<path fill="#58595B" d="M466.848,298.352c0,0.36-0.04,0.74-0.12,1.141l-1.2,6.041h-1l1.2-6.041c0.08-0.36,0.1-0.681,0.1-1
		c0-1.621-0.98-2.581-2.94-2.581c-2.38,0-4.061,1.34-4.581,3.94l-1.14,5.682h-1l2.081-10.442h0.98l-0.4,1.98
		c1.021-1.42,2.541-2.061,4.321-2.061C465.547,295.011,466.848,296.292,466.848,298.352z"/>
	<path fill="#58595B" d="M482.047,295.091l-1.86,9.322c-0.7,3.581-2.58,5.081-5.941,5.081c-1.92,0-3.521-0.601-4.521-1.641
		l0.64-0.74c0.84,0.94,2.261,1.48,3.961,1.48c2.781,0,4.301-1.26,4.842-4.021l0.319-1.561c-1.021,1.32-2.581,2.141-4.521,2.141
		c-2.781,0-4.561-1.58-4.561-4.161c0-3.4,2.48-5.981,5.94-5.981c2.161,0,3.721,0.94,4.222,2.741l0.52-2.661H482.047z
		 M480.087,299.212c0-2.08-1.381-3.301-3.741-3.301c-2.86,0-4.94,2.141-4.94,5.041c0,2.08,1.4,3.301,3.74,3.301
		C478.007,304.253,480.087,302.133,480.087,299.212z"/>
	<path fill="#58595B" d="M496.308,295.091l-2.081,10.442h-0.979l0.399-1.98c-1.021,1.44-2.521,2.061-4.28,2.061
		c-2.361,0-3.662-1.28-3.662-3.341c0-0.36,0.041-0.74,0.121-1.141l1.199-6.041h1.001l-1.2,6.041c-0.08,0.36-0.1,0.7-0.1,1.001
		c0,1.62,0.959,2.58,2.9,2.58c2.359,0,4.021-1.34,4.541-3.94l1.14-5.682H496.308z"/>
	<path fill="#58595B" d="M510.687,295.091l-2.08,10.442h-0.961l0.4-2.04c-1,1.32-2.54,2.12-4.4,2.12
		c-2.701,0-4.501-1.66-4.501-4.341c0-3.601,2.48-6.262,5.901-6.262c2.18,0,3.621,0.98,4.121,2.681l0.52-2.601H510.687z
		 M508.747,299.413c0-2.221-1.361-3.501-3.701-3.501c-2.82,0-4.901,2.24-4.901,5.301c0,2.221,1.36,3.501,3.7,3.501
		C506.666,304.713,508.747,302.493,508.747,299.413z"/>
	<path fill="#58595B" d="M525.206,295.091l-1.86,9.322c-0.7,3.581-2.581,5.081-5.94,5.081c-1.921,0-3.521-0.601-4.521-1.641
		l0.641-0.74c0.84,0.94,2.26,1.48,3.96,1.48c2.78,0,4.302-1.26,4.841-4.021l0.32-1.561c-1.02,1.32-2.58,2.141-4.521,2.141
		c-2.779,0-4.561-1.58-4.561-4.161c0-3.4,2.48-5.981,5.941-5.981c2.16,0,3.721,0.94,4.221,2.741l0.521-2.661H525.206z
		 M523.245,299.212c0-2.08-1.379-3.301-3.74-3.301c-2.86,0-4.941,2.141-4.941,5.041c0,2.08,1.4,3.301,3.741,3.301
		C521.165,304.253,523.245,302.133,523.245,299.212z"/>
	<path fill="#58595B" d="M529.063,300.533c-0.02,0.22-0.039,0.44-0.039,0.66c0,2.261,1.32,3.521,3.86,3.521
		c1.48,0,2.761-0.52,3.581-1.4l0.46,0.7c-0.921,1-2.46,1.601-4.121,1.601c-2.96,0-4.761-1.641-4.761-4.381
		c0-3.561,2.42-6.222,5.701-6.222c2.721,0,4.441,1.641,4.441,4.361c0,0.399-0.061,0.82-0.121,1.16H529.063z M529.185,299.752h8.041
		c0.02-0.18,0.02-0.34,0.02-0.521c0-2.16-1.439-3.36-3.52-3.36C531.425,295.872,529.685,297.432,529.185,299.752z"/>
	<path fill="#58595B" d="M553.942,300.533c-0.02,0.22-0.039,0.44-0.039,0.66c0,2.261,1.32,3.521,3.861,3.521
		c1.48,0,2.76-0.52,3.58-1.4l0.461,0.7c-0.92,1-2.461,1.601-4.121,1.601c-2.961,0-4.762-1.641-4.762-4.381
		c0-3.561,2.42-6.222,5.701-6.222c2.721,0,4.441,1.641,4.441,4.361c0,0.399-0.061,0.82-0.121,1.16H553.942z M554.063,299.752h8.041
		c0.021-0.18,0.021-0.34,0.021-0.521c0-2.16-1.441-3.36-3.521-3.36C556.304,295.872,554.563,297.432,554.063,299.752z"/>
	<path fill="#58595B" d="M576.204,295.091l-6.781,10.442h-1.02l-2.641-10.442h1.02l2.322,9.342l6.041-9.342H576.204z"/>
	<path fill="#58595B" d="M577.724,300.533c-0.02,0.22-0.039,0.44-0.039,0.66c0,2.261,1.318,3.521,3.859,3.521
		c1.48,0,2.762-0.52,3.582-1.4l0.459,0.7c-0.92,1-2.461,1.601-4.121,1.601c-2.961,0-4.76-1.641-4.76-4.381
		c0-3.561,2.42-6.222,5.701-6.222c2.721,0,4.439,1.641,4.439,4.361c0,0.399-0.059,0.82-0.119,1.16H577.724z M577.843,299.752h8.043
		c0.02-0.18,0.02-0.34,0.02-0.521c0-2.16-1.439-3.36-3.521-3.36C580.085,295.872,578.345,297.432,577.843,299.752z"/>
	<path fill="#58595B" d="M600.386,298.352c0,0.36-0.041,0.74-0.121,1.141l-1.199,6.041h-1l1.199-6.041
		c0.08-0.36,0.102-0.681,0.102-1c0-1.621-0.98-2.581-2.941-2.581c-2.381,0-4.061,1.34-4.582,3.94l-1.139,5.682h-1l2.08-10.442h0.98
		l-0.4,1.98c1.02-1.42,2.541-2.061,4.32-2.061C599.085,295.011,600.386,296.292,600.386,298.352z"/>
	<path fill="#58595B" d="M605.864,302.513c-0.061,0.28-0.08,0.52-0.08,0.74c0,0.98,0.52,1.5,1.6,1.5c0.621,0,1.221-0.2,1.701-0.58
		l0.299,0.74c-0.619,0.5-1.459,0.7-2.24,0.7c-1.5,0-2.381-0.82-2.381-2.221c0-0.26,0.021-0.52,0.08-0.8l1.34-6.642h-1.939l0.16-0.86
		h1.939l0.461-2.28h1l-0.459,2.28h3.32l-0.16,0.86h-3.32L605.864,302.513z"/>
	<path fill="#58595B" d="M636.485,299.352c0,3.602-2.502,6.262-5.922,6.262c-2.182,0-3.602-0.96-4.121-2.681l-1.301,6.481h-1
		l2.861-14.323h0.98l-0.4,2.021c1-1.32,2.52-2.101,4.381-2.101C634.665,295.011,636.485,296.671,636.485,299.352z M635.464,299.413
		c0-2.221-1.359-3.501-3.701-3.501c-2.82,0-4.9,2.221-4.9,5.301c0,2.221,1.361,3.501,3.721,3.501
		C633.403,304.713,635.464,302.473,635.464,299.413z"/>
	<path fill="#58595B" d="M650.685,295.091l-2.08,10.442h-0.961l0.4-2.04c-1,1.32-2.541,2.12-4.4,2.12
		c-2.701,0-4.502-1.66-4.502-4.341c0-3.601,2.48-6.262,5.902-6.262c2.18,0,3.619,0.98,4.119,2.681l0.521-2.601H650.685z
		 M648.743,299.413c0-2.221-1.359-3.501-3.699-3.501c-2.822,0-4.902,2.24-4.902,5.301c0,2.221,1.361,3.501,3.701,3.501
		C646.663,304.713,648.743,302.493,648.743,299.413z"/>
	<path fill="#58595B" d="M660.743,295.011l-0.18,0.98c-0.121,0-0.201-0.021-0.32-0.021c-2.361,0-3.92,1.421-4.48,4.201l-1.08,5.361
		h-1l2.08-10.442h0.98l-0.441,2.2C657.222,295.792,658.644,295.011,660.743,295.011z"/>
	<path fill="#58595B" d="M661.161,304.293l0.541-0.78c0.779,0.74,2.16,1.221,3.6,1.221c2.16,0,3.4-0.82,3.4-2.161
		c0-2.641-6.021-0.88-6.021-4.4c0-1.921,1.742-3.161,4.361-3.161c1.301,0,2.682,0.38,3.441,1.021l-0.461,0.78
		c-0.799-0.62-1.959-0.92-3.061-0.92c-2.061,0-3.301,0.88-3.301,2.18c0,2.701,6.041,0.94,6.041,4.401c0,1.98-1.779,3.141-4.48,3.141
		C663.562,305.614,661.962,305.053,661.161,304.293z"/>
	<path fill="#58595B" d="M673.661,300.533c-0.02,0.22-0.039,0.44-0.039,0.66c0,2.261,1.32,3.521,3.861,3.521
		c1.48,0,2.76-0.52,3.58-1.4l0.461,0.7c-0.92,1-2.461,1.601-4.121,1.601c-2.961,0-4.762-1.641-4.762-4.381
		c0-3.561,2.42-6.222,5.701-6.222c2.721,0,4.441,1.641,4.441,4.361c0,0.399-0.061,0.82-0.121,1.16H673.661z M673.782,299.752h8.041
		c0.021-0.18,0.021-0.34,0.021-0.521c0-2.16-1.441-3.36-3.521-3.36C676.022,295.872,674.282,297.432,673.782,299.752z"/>
	<path fill="#58595B" d="M692.704,295.011l-0.182,0.98c-0.119,0-0.199-0.021-0.318-0.021c-2.361,0-3.922,1.421-4.482,4.201
		l-1.08,5.361h-1l2.08-10.442h0.98l-0.439,2.2C689.183,295.792,690.603,295.011,692.704,295.011z"/>
	<path fill="#58595B" d="M710.021,293.651l-0.299,1.44h3.34l-0.16,0.86h-3.34l-1.9,9.582h-1l1.92-9.582h-1.939l0.158-0.86h1.941
		l0.32-1.58c0.379-1.881,1.52-2.9,3.34-2.9c0.801,0,1.58,0.239,2.021,0.7l-0.48,0.72c-0.381-0.36-0.92-0.561-1.561-0.561
		C711.081,291.47,710.321,292.13,710.021,293.651z"/>
	<path fill="#58595B" d="M713.542,301.273c0-3.581,2.5-6.262,5.98-6.262c2.82,0,4.621,1.681,4.621,4.341
		c0,3.602-2.5,6.262-5.98,6.262C715.341,305.614,713.542,303.914,713.542,301.273z M723.144,299.413
		c0-2.221-1.361-3.501-3.701-3.501c-2.82,0-4.9,2.24-4.9,5.301c0,2.221,1.359,3.501,3.701,3.501
		C721.063,304.713,723.144,302.493,723.144,299.413z"/>
	<path fill="#58595B" d="M734.042,295.011l-0.18,0.98c-0.121,0-0.201-0.021-0.32-0.021c-2.361,0-3.92,1.421-4.48,4.201l-1.08,5.361
		h-1l2.08-10.442h0.98l-0.441,2.2C730.521,295.792,731.942,295.011,734.042,295.011z"/>
	<path fill="#58595B" d="M746.04,303.633l0.76-0.641c0.5,1.061,1.541,1.721,2.922,1.721c1.719,0,2.779-0.86,3.26-3.261l1.801-9.002
		h-5.162l0.182-0.92h6.18l-2,9.982c-0.6,3.021-2,4.12-4.32,4.12C747.94,305.633,746.62,304.854,746.04,303.633z"/>
	<path fill="#58595B" d="M769.862,295.091l-2.08,10.442h-0.959l0.398-2.04c-1,1.32-2.539,2.12-4.4,2.12c-2.701,0-4.5-1.66-4.5-4.341
		c0-3.601,2.48-6.262,5.9-6.262c2.18,0,3.621,0.98,4.121,2.681l0.52-2.601H769.862z M767.923,299.413
		c0-2.221-1.361-3.501-3.701-3.501c-2.82,0-4.9,2.24-4.9,5.301c0,2.221,1.359,3.501,3.701,3.501
		C765.843,304.713,767.923,302.493,767.923,299.413z"/>
	<path fill="#58595B" d="M783.343,295.091l-6.781,10.442h-1.02l-2.641-10.442h1.02l2.32,9.342l6.041-9.342H783.343z"/>
	<path fill="#58595B" d="M795.382,295.091l-2.08,10.442h-0.959l0.398-2.04c-1,1.32-2.539,2.12-4.4,2.12c-2.701,0-4.5-1.66-4.5-4.341
		c0-3.601,2.48-6.262,5.9-6.262c2.18,0,3.621,0.98,4.121,2.681l0.52-2.601H795.382z M793.442,299.413
		c0-2.221-1.361-3.501-3.701-3.501c-2.82,0-4.9,2.24-4.9,5.301c0,2.221,1.359,3.501,3.701,3.501
		C791.362,304.713,793.442,302.493,793.442,299.413z"/>
	<path fill="#58595B" d="M797.181,304.293l0.539-0.78c0.781,0.74,2.16,1.221,3.602,1.221c2.16,0,3.4-0.82,3.4-2.161
		c0-2.641-6.021-0.88-6.021-4.4c0-1.921,1.74-3.161,4.361-3.161c1.299,0,2.68,0.38,3.439,1.021l-0.459,0.78
		c-0.801-0.62-1.961-0.92-3.061-0.92c-2.061,0-3.301,0.88-3.301,2.18c0,2.701,6.041,0.94,6.041,4.401c0,1.98-1.781,3.141-4.48,3.141
		C799.581,305.614,797.979,305.053,797.181,304.293z"/>
	<path fill="#58595B" d="M808.659,301.273c0-3.621,2.5-6.262,6.002-6.262c1.859,0,3.221,0.66,3.961,1.961l-0.82,0.5
		c-0.641-1.061-1.721-1.561-3.201-1.561c-2.861,0-4.941,2.24-4.941,5.301c0,2.221,1.361,3.501,3.781,3.501
		c1.381,0,2.66-0.54,3.461-1.521l0.699,0.561c-0.92,1.18-2.52,1.86-4.24,1.86C810.46,305.614,808.659,303.914,808.659,301.273z"/>
	<path fill="#58595B" d="M827.862,295.011l-0.182,0.98c-0.119,0-0.199-0.021-0.318-0.021c-2.361,0-3.922,1.421-4.482,4.201
		l-1.08,5.361h-1l2.08-10.442h0.98l-0.439,2.2C824.341,295.792,825.761,295.011,827.862,295.011z"/>
	<path fill="#58595B" d="M831.46,295.091h1l-2.08,10.442h-1L831.46,295.091z M831.8,291.811c0-0.48,0.381-0.881,0.881-0.881
		c0.439,0,0.779,0.341,0.779,0.74c0,0.5-0.379,0.881-0.898,0.881C832.12,292.551,831.8,292.21,831.8,291.811z"/>
	<path fill="#58595B" d="M847.042,299.352c0,3.602-2.5,6.262-5.922,6.262c-2.18,0-3.6-0.96-4.121-2.681l-1.299,6.481h-1
		l2.859-14.323h0.98l-0.4,2.021c1-1.32,2.521-2.101,4.381-2.101C845.222,295.011,847.042,296.671,847.042,299.352z M846.022,299.413
		c0-2.221-1.361-3.501-3.701-3.501c-2.82,0-4.9,2.221-4.9,5.301c0,2.221,1.359,3.501,3.721,3.501
		C843.962,304.713,846.022,302.473,846.022,299.413z"/>
	<path fill="#58595B" d="M851.681,302.513c-0.061,0.28-0.08,0.52-0.08,0.74c0,0.98,0.52,1.5,1.6,1.5c0.621,0,1.221-0.2,1.701-0.58
		l0.299,0.74c-0.619,0.5-1.459,0.7-2.24,0.7c-1.5,0-2.381-0.82-2.381-2.221c0-0.26,0.021-0.52,0.08-0.8l1.34-6.642h-1.939l0.16-0.86
		h1.939l0.461-2.28h1l-0.459,2.28h3.32l-0.16,0.86h-3.32L851.681,302.513z"/>
</g>
<g>
	<g>
		<path fill="#FFCD9A" d="M211.683,69.082c0,0,38.241,56.919,39.602,72.17c0,0,24.222-10.565,34.841-7.235
			c10.619,3.33,8.37,22.501,8.37,22.501l-36.1,19.147c0,0,6.152,51.165-7.111,63.608s-31.943,15.789-31.943,15.789
			s-29.769,25.602-29.388,39.316l-9.118-1.904c0,0,0.027-24.851-28.718-32.051c-28.745-7.2-24.904-19.291-24.904-19.291
			s-42.422-9.843-43.126-39.795c-0.705-29.955,19.997-49.485,43.126-33.675c23.129,15.81,36.149-19.861,11.969-33.646
			C115.003,120.232,158.631,43.972,211.683,69.082z"/>
	</g>
</g>
<g>
	<g>
		<path fill="#231F20" d="M203.422,257.792c-11.807,0-25.374-1.446-40.771-4.327c-2.429-0.452-4.029-2.791-3.577-5.219
			c0.456-2.426,2.795-4.028,5.218-3.572c40.801,7.633,68.148,4.697,81.285-8.707c8.875-9.06,11.639-25.088,8.698-50.439
			c-0.283-2.453,1.475-4.672,3.927-4.957c2.459-0.275,4.672,1.476,4.957,3.932c3.321,28.626-0.134,46.429-11.192,57.722
			C241.782,252.62,225.757,257.787,203.422,257.792z"/>
	</g>
</g>
<g>
	<path fill="#FF0000" d="M212.833,279.264c0,0,13.151,7.039,6.509,34.41s-15.437,24.354-25.28,28.384
		c-9.842,4.028-48.273-7.44-48.273-7.44l-18.574,37.593l-43.178-16.937c0,0,18.906-16.064,16.118-32.155
		c0,0-16.287-10.978-16.084-34.001c0.203-23.021,13.699-31.42,26.036-28.542c0,0,1.638-7.668,24.464-5.513
		c22.827,2.155,46.725,4.229,44.735,29.095C179.305,284.158,209.958,295.67,212.833,279.264z"/>
</g>
<g>
	<g>
		<g>
			<path fill="#231F20" d="M246.811,134.018c-1.805,0-3.505-1.099-4.182-2.892c-9.575-25.3-23.887-41.629-24.03-41.792
				c-1.639-1.846-1.466-4.67,0.383-6.312c1.849-1.635,4.676-1.462,6.312,0.385c0.63,0.71,15.547,17.736,25.701,44.557
				c0.873,2.311-0.292,4.891-2.601,5.763C247.87,133.923,247.337,134.018,246.811,134.018z"/>
		</g>
	</g>
</g>
<g>
	<g>
		<g>
			<path fill="#231F20" d="M254.963,176.56c-1.878,0-3.631-1.192-4.247-3.078c-0.772-2.35,0.508-4.872,2.854-5.646l33.305-10.922
				c3.105-0.872,4.923-4.105,4.048-7.207l-2.79-9.94c-0.866-3.081-4.07-4.902-7.154-4.06l-31.271,9.813
				c-2.358,0.734-4.866-0.569-5.605-2.929c-0.739-2.356,0.572-4.868,2.928-5.605l31.473-9.874
				c7.849-2.205,16.033,2.391,18.239,10.236l2.791,9.936c2.198,7.82-2.347,15.962-10.137,18.212l-33.039,10.838
				C255.894,176.487,255.427,176.56,254.963,176.56z"/>
		</g>
	</g>
</g>
<g>
	<g>
		<g>
			<path fill="#231F20" d="M219.538,68.137c0,0-2.065,14.797-16.854,18.236c-14.791,3.435-21.67-5.851-21.67-5.851
				s11.007,36.459-34.739,44.374c0,0,14.446,8.253,10.663,35.083c-3.786,26.831-18.919,25.115-29.583,14.794
				c-10.662-10.322-28.889-15.625-38.528,11.615c-9.635,27.253,26.491,50.988,42.658,44.796c0,0,3.095,10.875-1.032,22.116
				c0,0-12.038,1.271-22.358,7.124l-11.353-2.411l-3.095-4.713c0,0-20.957,4.925-33.29-6.449
				c-6.498-5.997-14.299-19.913-7.995-34.582c0,0-31.351-20.988-31.302-55.751c0.029-21.908,12.841-55.357,37.497-58.451
				c0,0-2.73-26.177,15.478-39.904c20.989-15.822,39.907-4.13,39.907-4.13s-4.128-20.98,18.574-28.892
				c22.701-7.914,32.676,10.318,32.676,10.318s7.567-16.022,28.202-12.999c20.64,3.024,20.987,22.628,20.987,22.628
				s12.283-4.777,16.853,6.881C234.378,59.999,229.858,68.713,219.538,68.137z"/>
		</g>
	</g>
</g>
<g>
	<g>
		<g>
			<path fill="#231F20" d="M130.097,209.167c-0.738,0-1.491-0.186-2.181-0.572c-0.513-0.289-4.123-2.383-7.406-6.039
				c-1.042,1.718-3.159,2.562-5.161,1.941c-4.748-1.5-10.03-5.142-10.615-10.892c-0.339-3.366,1.168-6.41,3.942-7.95
				c5.191-2.888,11.888,0.525,16.666,8.488c2.421,4.032,6.926,6.641,6.972,6.664c2.136,1.223,2.891,3.949,1.677,6.092
				C133.167,208.353,131.653,209.167,130.097,209.167z"/>
		</g>
	</g>
</g>
<g>
	<g>
		<g>
			<g>
				<path fill="#231F20" d="M194.428,284.158c-0.38,0-0.765-0.046-1.151-0.151c-2.385-0.633-3.807-3.082-3.173-5.467
					c4.471-16.869,19.867-19.346,20.521-19.442c2.443-0.371,4.719,1.323,5.081,3.761c0.363,2.435-1.31,4.703-3.735,5.08
					c-0.474,0.077-10.297,1.859-13.22,12.895C198.218,282.835,196.407,284.158,194.428,284.158z"/>
			</g>
		</g>
	</g>
</g>
<g>
	<g>
		<g>
			<path fill="#231F20" d="M184.219,346.086c-18.777,0.004-29.076-4.697-29.517-4.904c-2.242-1.044-3.208-3.705-2.164-5.938
				c1.046-2.247,3.706-3.211,5.945-2.165c0.075,0.036,9.811,4.37,27.61,4.05c1.893-0.033,3.649-0.026,5.346-0.021
				c7.905,0.029,12.172-0.096,15.492-2.906c4.032-3.398,7.303-11.505,10.297-25.525c2.458-11.514,1.887-19.954-1.606-23.803
				c-0.278,1.388-0.944,2.951-2.281,4.552c-6.521,7.827-22.29,7.378-48.206-1.378c-2.34-0.787-3.596-3.326-2.805-5.664
				c0.789-2.342,3.324-3.602,5.666-2.809c31.132,10.518,37.513,5.284,38.477,4.127c0.224-0.271,0.32-0.447,0.358-0.539
				c-0.161-0.346-0.828-0.988-1.384-1.322c-1.649-0.916-2.52-2.771-2.205-4.633c0.318-1.865,1.794-3.317,3.654-3.645
				c3.255-0.576,10.076-0.184,15.002,4.926c5.932,6.152,7.304,16.939,4.072,32.056c-3.522,16.495-7.492,25.616-13.272,30.501
				c-5.987,5.049-13.076,5.036-21.287,5.003c-1.647,0-3.357-0.007-5.16,0.026C185.563,346.086,184.884,346.086,184.219,346.086z"/>
		</g>
	</g>
</g>
<g>
	<g>
		<g>
			<path fill="#231F20" d="M123.565,383.569c-0.908,0-1.826-0.276-2.618-0.852c-2.001-1.451-2.446-4.246-0.997-6.243
				c26.834-37.021,25.675-58.428,24.831-74.065c-0.401-7.458-0.752-13.908,1.818-20.271c2.636-6.531,6.504-10.257,11.494-11.062
				c8.655-1.403,16.203,7.141,17.038,8.118c1.602,1.879,1.374,4.707-0.508,6.305c-1.876,1.6-4.694,1.375-6.296-0.498
				c-1.612-1.875-5.89-5.591-8.812-5.096c-2.21,0.362-3.847,3.652-4.626,5.582c-1.823,4.52-1.539,9.776-1.179,16.438
				c0.919,16.974,2.174,40.214-26.519,79.795C126.315,382.923,124.953,383.569,123.565,383.569z"/>
		</g>
	</g>
</g>
<g>
	<g>
		<g>
			<path fill="#231F20" d="M73.691,363.964c-1.436,0-2.845-0.694-3.709-1.97c-1.384-2.048-0.843-4.83,1.203-6.208
				c26.255-17.741,26.293-37.358,26.333-60.071c0.017-8.232,0.029-16.742,1.337-25.467c1.239-8.284,4.815-14.25,10.619-17.723
				c13.053-7.805,33.204-0.582,47.922,4.692c3.575,1.276,6.663,2.391,8.97,3.017c18.148,4.953,18.824,26.749,18.845,27.676
				c0.051,2.469-1.907,4.512-4.376,4.564c-0.032,0.004-0.062,0.004-0.097,0.004c-2.419,0-4.41-1.935-4.468-4.367
				c-0.018-0.673-0.586-16.064-12.256-19.244c-2.644-0.727-5.884-1.887-9.637-3.229c-12.299-4.41-30.887-11.074-40.312-5.438
				c-3.447,2.066-5.527,5.782-6.367,11.374c-1.205,8.067-1.22,16.246-1.236,24.159c-0.042,23.14-0.083,47.07-30.271,67.458
				C75.424,363.713,74.552,363.964,73.691,363.964z"/>
		</g>
	</g>
</g>
<g>
	<g>
		<g>
			<path fill="#231F20" d="M105.688,379.44c-1.222,0-2.439-0.498-3.32-1.474c-1.655-1.834-1.514-4.66,0.32-6.312
				c9.678-8.746,13.51-20.001,13.545-20.116c0.781-2.344,3.315-3.61,5.658-2.824c2.341,0.779,3.608,3.314,2.827,5.652
				c-0.183,0.549-4.631,13.62-16.035,23.921C107.828,379.059,106.757,379.44,105.688,379.44z"/>
		</g>
	</g>
</g>
<g>
	<g>
		<g>
			<path fill="#231F20" d="M88.566,372.21c-1.3,0-2.593-0.57-3.477-1.657c-1.559-1.919-1.267-4.734,0.651-6.29
				c10.054-8.157,14.554-19.268,14.6-19.381c0.908-2.292,3.505-3.418,5.799-2.508c2.292,0.909,3.421,3.496,2.519,5.788
				c-0.213,0.545-5.344,13.36-17.275,23.046C90.553,371.878,89.556,372.21,88.566,372.21z"/>
		</g>
	</g>
</g>
<g>
	<g>
		<g>
			<path fill="#231F20" d="M100.843,323.174c-0.227,0-0.458-0.02-0.688-0.056c-0.252-0.037-25.289-4.24-21.259-32.035
				c2.387-16.487,3.967-27.382,11.247-32.788c3.998-2.97,9.144-3.861,16.203-2.807c2.443,0.367,4.128,2.643,3.761,5.087
				c-0.366,2.438-2.636,4.127-5.083,3.757c-5.976-0.895-8.309,0.223-9.543,1.14c-4.295,3.191-5.809,13.649-7.73,26.892
				c-1.184,8.146,0.771,14.281,5.805,18.23c3.782,2.974,7.925,3.68,7.967,3.688c2.439,0.374,4.113,2.665,3.736,5.101
				C104.915,321.592,103.01,323.174,100.843,323.174z"/>
		</g>
	</g>
</g>
<g>
	<g>
		<g>
			<path fill="#231F20" d="M219.098,146.862c1.059,4.141-1.438,8.356-5.578,9.412l0,0c-4.142,1.066-8.361-1.437-9.418-5.575
				l-5.794-22.664c-1.057-4.138,1.444-8.356,5.584-9.417l0,0c4.14-1.057,8.355,1.442,9.415,5.58L219.098,146.862z"/>
		</g>
	</g>
</g>
<g>
	<g>
		<g>
			<path fill="#231F20" d="M186.856,122.488c-0.476,0-0.961-0.078-1.431-0.254c-2.129-0.793-3.221-3.145-2.439-5.277
				c0.241-0.664,6.186-16.372,24.965-19.861c2.241-0.406,4.394,1.066,4.812,3.31c0.414,2.24-1.066,4.397-3.308,4.813
				c-14.035,2.6-18.539,14.106-18.724,14.597C190.104,121.466,188.527,122.488,186.856,122.488z"/>
		</g>
	</g>
</g>
<g>
	<g>
		<g>
			<path fill="#231F20" d="M222.355,209.848c-6.414,0-15.384-1.83-23.723-9.937c-1.635-1.584-1.673-4.201-0.083-5.834
				c1.587-1.632,4.2-1.674,5.836-0.086c11.188,10.876,23.636,6.965,24.162,6.792c2.155-0.708,4.493,0.458,5.21,2.612
				c0.721,2.147-0.418,4.472-2.567,5.204C230.877,208.711,227.408,209.848,222.355,209.848z"/>
		</g>
	</g>
</g>
<g>
	<g>
		<g>
			<path fill="#231F20" d="M201.512,212.269c-1.407,0-2.778-0.72-3.549-2.024c-3.672-6.164-4.759-11.853-3.23-16.901
				c1.906-6.299,7.127-8.955,7.718-9.234c2.054-0.982,4.52-0.117,5.503,1.944c0.976,2.036,0.126,4.48-1.898,5.479
				c-0.178,0.095-2.625,1.417-3.449,4.295c-0.771,2.686,0.076,6.213,2.448,10.2c1.166,1.958,0.523,4.492-1.437,5.654
				C202.958,212.079,202.231,212.269,201.512,212.269z"/>
		</g>
	</g>
</g>
</svg>
